<?xml version="1.0" standalone="no"?>
<!DOCTYPE svg PUBLIC "-//W3C//DTD SVG 20010904//EN"
 "http://www.w3.org/TR/2001/REC-SVG-20010904/DTD/svg10.dtd">
<svg version="1.0" xmlns="http://www.w3.org/2000/svg"
 width="1600.000000pt" height="1600.000000pt" viewBox="0 0 1600.000000 1600.000000"
 preserveAspectRatio="xMidYMid meet">

<g transform="translate(0.000000,1600.000000) scale(0.100000,-0.100000)"
fill="#000000" stroke="none">
<path d="M6446 15741 c-8 -13 -6 -157 4 -238 12 -90 25 -113 65 -113 17 0 40
-7 51 -15 10 -8 31 -15 45 -15 15 0 32 -7 39 -15 7 -8 19 -15 26 -15 8 0 32
-11 54 -25 22 -14 44 -25 49 -25 5 0 14 -7 21 -15 7 -9 27 -22 44 -30 17 -8
42 -25 56 -38 14 -12 48 -40 75 -62 62 -50 81 -69 149 -153 46 -57 166 -243
166 -257 0 -3 12 -29 26 -58 14 -28 34 -79 45 -112 11 -33 24 -69 28 -80 13
-31 33 -115 40 -165 4 -25 10 -50 14 -57 4 -7 12 -52 17 -100 5 -48 14 -128
20 -178 41 -335 -134 -639 -543 -944 -37 -28 -80 -62 -95 -76 -15 -14 -32 -25
-39 -25 -7 0 -13 -4 -13 -9 0 -5 -17 -20 -37 -32 -21 -13 -80 -54 -131 -92
-51 -37 -104 -73 -117 -79 -14 -6 -25 -15 -25 -19 0 -4 -21 -23 -47 -40 -90
-61 -143 -104 -298 -240 -113 -99 -184 -171 -245 -248 -19 -25 -43 -52 -52
-60 -10 -9 -18 -20 -18 -26 0 -6 -13 -27 -30 -47 -35 -42 -93 -149 -121 -222
-11 -28 -24 -60 -29 -71 -4 -11 -15 -45 -23 -75 -63 -231 -64 -505 -1 -740 8
-30 20 -73 25 -95 6 -22 17 -53 25 -68 8 -16 14 -35 14 -44 0 -13 15 -48 41
-93 5 -8 12 -22 15 -30 15 -39 43 -92 92 -173 28 -48 52 -92 52 -97 0 -4 4
-10 9 -12 4 -1 30 -32 57 -68 109 -145 153 -197 241 -285 51 -51 116 -112 145
-136 28 -24 75 -64 103 -89 27 -25 68 -59 90 -75 22 -16 56 -42 76 -59 20 -17
49 -39 65 -48 38 -23 62 -38 99 -64 17 -11 37 -24 45 -27 8 -4 29 -16 45 -27
17 -11 37 -23 45 -27 8 -4 20 -13 25 -21 18 -23 62 -3 134 62 38 33 116 104
175 156 58 52 106 98 106 102 0 4 -19 20 -42 35 -57 37 -249 182 -318 239 -87
72 -313 298 -373 372 -189 232 -295 453 -317 662 -25 245 -13 422 42 575 5 17
13 42 15 57 3 15 11 33 19 39 8 6 14 19 14 29 0 10 7 23 15 30 8 7 15 19 15
27 0 8 18 41 40 74 22 33 40 63 40 66 0 32 306 337 437 436 56 42 105 77 108
77 3 0 11 4 18 10 7 5 39 29 72 53 204 147 276 207 416 347 86 85 168 173 182
195 15 22 47 69 72 104 25 35 67 104 92 155 25 50 52 103 60 118 7 14 13 33
13 42 0 9 4 24 9 34 11 22 35 107 56 202 14 61 16 110 12 265 -5 181 -15 269
-50 410 -33 132 -39 150 -48 160 -5 5 -9 18 -9 30 0 11 -7 33 -15 49 -8 15
-15 34 -15 41 0 8 -6 26 -14 42 -8 15 -21 44 -30 63 -137 315 -286 520 -506
693 -67 53 -81 62 -151 99 -21 11 -42 24 -45 29 -3 5 -16 9 -28 9 -13 0 -29 7
-36 15 -7 8 -22 15 -34 15 -11 0 -30 7 -40 15 -11 8 -31 15 -44 15 -13 0 -33
5 -44 11 -11 6 -30 12 -42 14 -11 2 -34 8 -51 13 -98 32 -137 42 -169 42 -20
0 -53 7 -73 15 -38 16 -138 20 -147 6z"/>
<path d="M11546 13521 c-4 -5 -5 -81 -2 -167 l3 -157 34 -18 c19 -10 45 -18
59 -19 14 0 34 -7 44 -15 11 -8 27 -15 36 -15 17 0 112 -46 165 -80 17 -11 37
-23 45 -26 62 -28 278 -243 345 -344 67 -101 66 -101 123 -215 68 -141 82
-173 82 -196 0 -11 5 -29 10 -40 6 -10 15 -40 21 -66 5 -27 17 -79 25 -118 47
-223 49 -497 5 -625 -57 -163 -211 -359 -421 -534 -69 -57 -308 -236 -340
-255 -31 -18 -355 -259 -431 -321 -346 -281 -557 -554 -632 -820 -9 -30 -23
-79 -31 -109 -23 -76 -23 -512 -1 -564 8 -20 15 -49 15 -64 0 -15 6 -45 14
-68 8 -22 28 -85 46 -140 83 -252 283 -557 531 -809 70 -70 138 -136 152 -145
14 -9 47 -36 75 -61 85 -77 179 -150 262 -204 156 -102 179 -116 185 -116 4 0
24 -13 45 -30 44 -35 50 -36 71 -12 8 9 43 42 78 72 35 30 102 91 148 135 47
44 94 86 104 93 26 18 24 41 -3 51 -13 5 -32 17 -43 28 -11 10 -43 34 -70 52
-28 19 -54 41 -58 48 -4 7 -13 13 -19 13 -10 0 -84 56 -118 91 -9 8 -26 22
-38 31 -12 8 -72 62 -133 119 -164 153 -290 303 -373 444 -25 44 -51 87 -56
95 -14 23 -45 90 -62 135 -46 118 -59 200 -65 395 -4 140 -1 179 16 260 31
145 41 184 52 195 5 5 9 15 9 22 0 12 59 140 83 177 47 77 157 214 224 281 84
84 189 179 226 204 12 8 24 17 27 21 11 13 88 70 95 70 4 0 24 14 45 30 21 17
41 30 44 30 4 0 12 5 19 10 7 6 57 43 112 83 282 203 496 431 629 669 42 75
76 148 76 162 0 8 4 17 9 20 5 3 19 38 31 78 12 40 26 88 32 107 6 18 14 61
19 95 4 33 13 92 19 129 13 73 10 144 -9 277 -23 155 -51 284 -83 375 -5 17
-13 44 -17 60 -10 38 -81 213 -115 282 -14 29 -26 55 -26 58 0 8 -111 188
-158 254 -114 164 -285 318 -451 407 -24 13 -50 24 -56 24 -7 0 -18 7 -25 15
-7 8 -22 15 -34 15 -11 0 -30 7 -40 15 -11 8 -30 15 -42 15 -12 0 -27 7 -34
15 -7 8 -24 15 -38 15 -14 0 -39 4 -56 10 -176 55 -396 94 -410 71z"/>
<path d="M1348 12529 c-2 -6 -1 -46 3 -88 4 -42 9 -109 11 -149 3 -40 9 -76
14 -81 5 -4 36 -16 69 -25 57 -17 89 -30 145 -61 14 -8 41 -21 60 -30 67 -30
168 -101 232 -164 26 -25 62 -59 79 -76 28 -26 142 -176 176 -231 40 -63 133
-268 133 -292 0 -10 6 -26 14 -37 7 -11 16 -33 19 -50 3 -16 13 -59 22 -95 41
-163 70 -429 60 -555 -14 -191 -107 -358 -311 -562 -67 -67 -148 -141 -181
-165 -32 -24 -70 -54 -83 -66 -14 -13 -40 -33 -58 -44 -19 -11 -48 -34 -65
-50 -18 -16 -44 -34 -59 -41 -16 -6 -28 -15 -28 -19 0 -4 -15 -15 -32 -24 -18
-9 -51 -32 -74 -50 -23 -19 -46 -34 -51 -34 -6 0 -21 -10 -34 -23 -13 -13 -69
-57 -124 -98 -54 -41 -115 -89 -135 -107 -19 -18 -54 -47 -78 -65 -148 -110
-408 -416 -457 -537 -4 -8 -11 -22 -16 -30 -21 -35 -68 -151 -79 -200 -5 -19
-13 -53 -19 -75 -6 -22 -13 -79 -17 -127 -4 -49 -11 -88 -15 -88 -5 0 -9 -40
-9 -90 0 -49 4 -90 9 -90 5 0 12 -33 15 -72 7 -79 31 -205 47 -253 6 -16 14
-47 19 -68 4 -21 13 -44 19 -50 6 -6 11 -19 11 -28 0 -10 16 -53 36 -96 20
-43 40 -87 45 -98 5 -11 13 -27 19 -35 29 -44 90 -151 90 -158 1 -4 14 -23 30
-42 17 -19 30 -40 30 -47 0 -7 4 -13 9 -13 4 0 28 -28 52 -61 86 -121 254
-292 423 -434 27 -22 65 -54 85 -70 76 -64 273 -205 287 -205 3 0 20 -11 38
-25 18 -14 37 -25 43 -25 5 0 18 -9 28 -20 10 -11 21 -17 25 -15 4 3 13 -2 20
-10 20 -25 37 -18 101 43 34 31 75 68 92 82 17 14 56 48 86 76 31 28 71 64 89
79 17 15 32 31 32 37 0 11 -46 58 -57 58 -8 0 -196 140 -209 157 -6 7 -15 13
-19 13 -9 0 -113 90 -186 160 -26 25 -69 66 -95 91 -166 156 -325 379 -413
581 -12 26 -21 54 -21 62 0 8 -4 17 -9 20 -5 3 -11 23 -14 43 -3 21 -10 56
-16 78 -6 22 -11 130 -11 244 0 205 11 297 46 378 8 17 14 38 14 46 0 9 6 28
14 44 8 15 29 57 47 93 28 55 102 174 119 190 3 3 33 39 67 80 103 127 272
272 482 414 250 169 339 243 537 446 95 98 254 314 254 345 0 5 6 16 13 24 19
22 92 195 111 261 49 175 50 179 50 395 0 208 -4 248 -45 410 -6 22 -14 58
-19 80 -31 149 -160 454 -254 604 -14 22 -26 45 -26 50 0 5 -3 11 -7 13 -5 2
-26 30 -48 63 -54 81 -258 282 -342 337 -37 25 -99 60 -138 77 -38 18 -83 39
-98 47 -16 8 -38 14 -50 14 -12 0 -31 7 -41 15 -11 8 -34 15 -51 15 -17 0 -39
6 -50 14 -11 7 -38 16 -60 19 -61 8 -185 36 -198 44 -21 13 -165 15 -169 2z"/>
<path d="M6980 8809 c-36 -3 -113 -12 -172 -19 -59 -6 -111 -9 -116 -6 -6 3
-32 -1 -58 -9 -27 -8 -68 -15 -91 -15 -23 0 -54 -5 -70 -11 -15 -6 -55 -15
-88 -20 -78 -10 -162 -28 -200 -41 -16 -5 -48 -14 -70 -18 -63 -13 -127 -32
-162 -46 -17 -8 -42 -14 -56 -14 -14 0 -29 -4 -32 -10 -3 -5 -19 -10 -34 -10
-16 0 -34 -7 -41 -15 -7 -8 -25 -15 -39 -15 -15 0 -36 -7 -47 -15 -10 -8 -29
-15 -40 -15 -12 0 -27 -7 -34 -15 -7 -8 -21 -15 -30 -15 -10 0 -31 -6 -47 -14
-87 -44 -136 -66 -148 -66 -7 0 -18 -7 -25 -15 -7 -8 -23 -15 -35 -15 -12 0
-28 -7 -35 -15 -7 -8 -21 -15 -31 -15 -10 0 -21 -4 -24 -10 -3 -5 -23 -17 -43
-26 -20 -8 -44 -20 -52 -25 -8 -5 -22 -12 -30 -15 -31 -12 -36 -15 -65 -34
-16 -11 -37 -23 -45 -27 -8 -3 -32 -17 -52 -30 -21 -13 -44 -23 -52 -23 -8 0
-19 -6 -23 -12 -8 -12 -99 -78 -108 -78 -4 0 -128 -84 -149 -101 -6 -5 -51
-38 -101 -74 -49 -36 -114 -87 -144 -113 -30 -26 -64 -54 -76 -62 -67 -46
-463 -441 -522 -520 -22 -30 -49 -64 -60 -75 -18 -19 -208 -274 -228 -307 -5
-9 -31 -47 -56 -85 -26 -37 -57 -86 -68 -108 -12 -22 -26 -47 -31 -55 -86
-139 -259 -489 -260 -523 0 -7 -7 -21 -15 -31 -8 -11 -15 -30 -15 -42 0 -12
-6 -27 -14 -33 -8 -6 -16 -24 -19 -39 -4 -24 -45 -147 -66 -197 -4 -11 -16
-47 -26 -80 -9 -33 -24 -82 -32 -110 -8 -27 -19 -63 -25 -80 -6 -16 -14 -53
-18 -82 -5 -28 -11 -56 -14 -61 -3 -5 -10 -35 -16 -68 -6 -32 -18 -95 -26
-139 -8 -44 -18 -116 -24 -160 -5 -44 -14 -100 -19 -125 -5 -25 -12 -115 -16
-199 -3 -85 -8 -157 -10 -160 -3 -2 -60 -8 -127 -12 -68 -4 -160 -13 -206 -19
-46 -6 -87 -8 -91 -5 -5 2 -23 0 -42 -6 -19 -6 -61 -17 -94 -24 -33 -7 -85
-20 -115 -30 -30 -9 -72 -19 -92 -22 -21 -3 -42 -11 -49 -19 -6 -8 -18 -14
-26 -14 -8 0 -27 -6 -41 -14 -15 -7 -40 -19 -57 -26 -16 -7 -37 -16 -45 -21
-8 -5 -22 -12 -30 -15 -8 -3 -22 -10 -30 -15 -8 -5 -21 -11 -27 -14 -33 -13
-40 -16 -68 -35 -16 -10 -46 -27 -65 -36 -19 -10 -42 -24 -50 -31 -8 -7 -62
-47 -119 -89 -191 -140 -425 -400 -535 -594 -70 -124 -149 -293 -181 -385 -9
-27 -20 -57 -25 -65 -4 -9 -11 -35 -15 -58 -4 -23 -11 -44 -16 -48 -5 -3 -9
-20 -9 -38 0 -19 -7 -53 -15 -76 -8 -23 -15 -59 -15 -79 0 -20 -7 -68 -15
-106 -20 -94 -20 -354 0 -458 8 -43 15 -99 15 -124 0 -24 5 -53 11 -64 6 -11
14 -41 19 -67 12 -64 30 -134 39 -152 5 -9 12 -31 16 -50 4 -19 11 -41 15 -50
4 -8 17 -36 30 -63 12 -26 37 -63 55 -83 43 -46 78 -104 63 -104 -9 0 -9 -3 0
-12 7 -7 12 -29 12 -50 0 -25 5 -41 15 -44 9 -4 15 -19 15 -41 0 -27 3 -34 15
-29 10 4 15 -1 15 -15 0 -19 21 -49 35 -49 3 0 18 -14 32 -30 13 -17 33 -30
44 -30 10 0 19 -4 19 -10 0 -5 11 -10 24 -10 13 0 26 -7 30 -15 5 -13 811 -15
7171 -15 l7165 0 43 27 c23 14 48 34 55 44 7 10 19 24 27 32 8 8 17 26 21 41
3 14 10 29 15 32 17 10 11 213 -7 250 -15 32 -15 38 4 102 41 131 52 181 52
225 0 25 7 74 14 109 20 87 20 557 0 643 -7 33 -14 80 -14 104 0 40 -14 117
-42 231 -6 25 -14 65 -18 90 -4 25 -11 56 -17 70 -6 14 -18 52 -28 85 -9 33
-21 68 -26 77 -5 10 -9 25 -9 34 0 9 -6 30 -14 47 -8 18 -28 68 -46 111 -18
44 -36 87 -40 95 -9 16 -60 118 -114 226 -16 33 -46 85 -67 115 -20 30 -58 89
-85 130 -26 40 -70 100 -96 132 -26 31 -48 61 -48 65 0 11 -223 248 -295 314
-33 29 -64 60 -68 67 -8 11 -143 117 -230 180 -18 12 -41 30 -52 40 -11 10
-37 26 -57 37 -21 11 -38 22 -38 26 0 4 -8 9 -17 13 -10 3 -32 14 -49 25 -28
17 -99 56 -213 117 -24 13 -52 24 -61 24 -10 0 -23 7 -30 15 -7 8 -19 15 -26
15 -8 0 -22 4 -32 9 -54 26 -90 41 -115 47 -15 3 -30 10 -33 15 -3 5 -15 9
-28 9 -12 0 -31 7 -42 15 -10 8 -27 15 -37 15 -11 0 -31 6 -45 14 -15 8 -54
22 -87 30 -33 9 -73 21 -90 27 -16 7 -58 15 -91 19 -34 4 -66 10 -71 13 -5 3
-46 7 -89 8 -71 1 -87 -2 -144 -30 -35 -17 -74 -44 -88 -58 -34 -36 -92 -129
-92 -146 0 -14 -19 -37 -32 -37 -4 0 -8 5 -8 11 0 19 -33 84 -47 92 -7 4 -13
15 -13 23 0 9 -6 21 -12 28 -7 8 -20 24 -28 36 -8 12 -19 28 -25 34 -5 6 -23
28 -38 49 -16 21 -45 55 -65 77 -56 58 -82 91 -82 101 0 5 -4 9 -10 9 -5 0
-28 18 -50 40 -22 22 -46 40 -53 40 -7 0 -17 10 -22 22 -6 13 -19 27 -30 33
-11 6 -39 29 -62 53 -23 23 -45 42 -48 42 -3 0 -30 18 -59 40 -29 22 -60 40
-69 40 -10 0 -17 4 -17 10 0 5 -20 21 -45 36 -25 14 -45 30 -45 35 0 5 -6 9
-14 9 -16 0 -43 14 -103 53 -24 15 -53 27 -67 27 -13 0 -26 7 -30 15 -3 8 -12
15 -21 15 -9 0 -27 7 -40 16 -14 9 -36 14 -49 12 -17 -4 -23 -1 -19 9 3 7 -1
14 -8 15 -8 0 -19 2 -24 2 -19 2 -61 40 -77 71 -9 17 -31 62 -48 100 -68 151
-176 364 -227 448 -29 48 -53 90 -53 92 0 2 -25 40 -55 84 -30 44 -55 83 -55
86 0 3 -31 47 -70 99 -38 52 -70 98 -70 103 0 4 -12 19 -26 32 -14 14 -39 45
-56 70 -17 25 -36 51 -42 56 -6 6 -69 73 -139 151 -108 120 -360 358 -462 435
-16 13 -57 47 -89 76 -33 29 -65 53 -71 53 -7 0 -20 9 -31 21 -19 21 -302 212
-369 249 -22 12 -62 35 -90 51 -27 16 -61 35 -75 42 -14 6 -27 14 -30 17 -15
16 -365 180 -384 180 -7 0 -21 7 -32 15 -10 8 -28 15 -40 15 -11 0 -29 7 -40
15 -10 8 -28 15 -40 15 -11 0 -24 4 -30 8 -8 8 -118 44 -269 89 -27 8 -63 19
-80 25 -16 6 -50 14 -75 18 -46 9 -96 21 -186 46 -28 8 -67 14 -86 14 -20 0
-52 7 -71 15 -20 8 -60 15 -89 15 -29 0 -75 7 -102 15 -28 8 -57 13 -67 10 -9
-3 -88 3 -176 14 -161 20 -467 25 -613 10z m640 -680 c173 -19 242 -28 273
-38 29 -9 59 -15 207 -41 25 -4 63 -13 85 -19 127 -36 154 -44 195 -58 25 -8
54 -19 65 -23 11 -4 47 -15 80 -25 83 -25 154 -50 212 -76 87 -39 238 -110
253 -119 8 -5 44 -23 79 -40 142 -68 429 -262 641 -434 115 -94 383 -359 468
-465 89 -110 262 -339 262 -347 0 -3 16 -30 35 -60 82 -127 104 -162 136 -219
51 -93 138 -269 139 -281 0 -6 7 -17 15 -24 8 -7 15 -20 15 -29 0 -10 10 -37
21 -61 12 -25 25 -56 30 -70 4 -14 17 -50 29 -80 25 -63 54 -209 44 -219 -4
-3 -9 0 -11 7 -4 10 -9 9 -24 -4 -10 -9 -19 -22 -19 -27 0 -27 -87 -134 -195
-242 -67 -66 -132 -128 -146 -137 -13 -10 -42 -32 -65 -50 -22 -18 -58 -42
-80 -53 -21 -11 -40 -23 -42 -27 -2 -5 -12 -8 -22 -8 -9 0 -23 -7 -30 -15 -7
-8 -17 -15 -23 -15 -6 0 -20 -8 -31 -19 -18 -15 -72 -46 -148 -83 -10 -4 -24
-8 -32 -8 -8 0 -37 -11 -64 -25 -28 -14 -65 -28 -84 -31 -18 -4 -37 -10 -43
-14 -5 -3 -37 -14 -70 -24 -33 -10 -75 -25 -93 -32 -18 -8 -40 -14 -50 -14 -9
0 -30 -7 -46 -15 -15 -8 -47 -15 -70 -15 -23 0 -50 -6 -61 -14 -11 -8 -43 -16
-70 -19 -28 -3 -70 -9 -95 -15 -197 -44 -636 -72 -830 -52 -63 6 -187 15 -275
20 -199 11 -305 26 -440 62 -22 5 -62 12 -90 15 -27 3 -56 10 -63 15 -7 6 -33
13 -59 15 -25 2 -53 8 -62 12 -9 5 -36 12 -61 16 -25 4 -49 11 -55 15 -5 4
-30 10 -55 13 -25 3 -70 12 -100 21 -30 9 -84 23 -120 31 -36 8 -90 22 -120
31 -30 9 -71 19 -90 24 -19 4 -48 15 -65 24 -16 9 -40 16 -52 16 -19 0 -180
67 -241 100 -28 15 -163 76 -222 101 -30 12 -66 30 -80 39 -14 10 -37 20 -52
24 -16 3 -28 12 -28 19 0 7 -24 25 -52 40 -71 36 -182 98 -188 106 -3 3 -23
15 -45 26 -22 11 -42 22 -45 25 -12 12 -129 98 -165 122 -22 14 -52 36 -67 49
-14 13 -35 31 -46 39 -161 122 -532 512 -532 559 0 5 -6 16 -14 24 -8 7 -29
38 -47 68 -18 30 -38 57 -44 61 -7 4 -20 29 -30 55 -10 26 -26 60 -36 75 -11
14 -19 30 -19 35 -1 4 -9 26 -20 48 -11 22 -19 48 -20 57 0 9 -4 19 -9 22 -5
3 -12 22 -15 41 -4 19 -11 35 -16 35 -4 0 -10 24 -13 53 -2 28 -9 66 -15 82
-16 44 -33 285 -21 306 5 10 9 48 9 86 0 67 1 69 46 121 63 72 524 412 558
412 3 0 29 15 58 33 68 43 273 143 441 215 23 10 59 26 80 35 21 9 46 17 57
17 10 0 21 4 25 9 3 5 20 13 38 16 17 4 79 23 137 42 58 19 123 38 145 42 40
9 95 22 190 47 28 7 106 20 175 28 69 9 161 21 205 27 190 26 587 30 785 8z
m-2990 -1049 c-10 -19 -30 -28 -30 -14 0 6 30 33 38 34 1 0 -2 -9 -8 -20z
m-35 -40 c-3 -5 -10 -10 -16 -10 -5 0 -9 5 -9 10 0 6 7 10 16 10 8 0 12 -4 9
-10z m-155 -180 c0 -5 -7 -10 -15 -10 -8 0 -15 5 -15 10 0 6 7 10 15 10 8 0
15 -4 15 -10z m-140 -130 c0 -5 -2 -10 -4 -10 -3 0 -8 5 -11 10 -3 6 -1 10 4
10 6 0 11 -4 11 -10z m-170 -220 c0 -5 -4 -10 -10 -10 -5 0 -10 5 -10 10 0 6
5 10 10 10 6 0 10 -4 10 -10z m-50 -99 c0 -6 -4 -13 -10 -16 -5 -3 -10 1 -10
9 0 9 5 16 10 16 6 0 10 -4 10 -9z m-145 -210 c3 -5 1 -12 -5 -16 -5 -3 -10 1
-10 9 0 18 6 21 15 7z m15 -131 c0 -5 -5 -10 -11 -10 -5 0 -7 5 -4 10 3 6 8
10 11 10 2 0 4 -4 4 -10z m-100 -35 c0 -8 -4 -15 -10 -15 -5 0 -7 7 -4 15 4 8
8 15 10 15 2 0 4 -7 4 -15z m-63 -107 c-3 -8 -6 -5 -6 6 -1 11 2 17 5 13 3 -3
4 -12 1 -19z m7720 -50 c-3 -8 -6 -5 -6 6 -1 11 2 17 5 13 3 -3 4 -12 1 -19z
m-7750 -30 c-3 -7 -5 -2 -5 12 0 14 2 19 5 13 2 -7 2 -19 0 -25z m-30 -70 c-3
-7 -5 -2 -5 12 0 14 2 19 5 13 2 -7 2 -19 0 -25z m-17 -58 c0 -11 -4 -20 -10
-20 -5 0 -10 9 -10 20 0 11 5 20 10 20 6 0 10 -9 10 -20z m7857 -12 c-3 -7 -5
-2 -5 12 0 14 2 19 5 13 2 -7 2 -19 0 -25z m30 -80 c-3 -8 -6 -5 -6 6 -1 11 2
17 5 13 3 -3 4 -12 1 -19z m468 -18 c-3 -5 -10 -10 -16 -10 -5 0 -9 5 -9 10 0
6 7 10 16 10 8 0 12 -4 9 -10z m-438 -87 c-3 -10 -5 -4 -5 12 0 17 2 24 5 18
2 -7 2 -21 0 -30z m-8010 -45 c-3 -8 -6 -5 -6 6 -1 11 2 17 5 13 3 -3 4 -12 1
-19z m8543 -7 c0 -6 -4 -13 -10 -16 -5 -3 -10 1 -10 9 0 9 5 16 10 16 6 0 10
-4 10 -9z m-8560 -50 c0 -11 -4 -23 -10 -26 -6 -4 -10 5 -10 19 0 14 5 26 10
26 6 0 10 -9 10 -19z m8060 -1 c0 -11 -4 -20 -10 -20 -5 0 -10 9 -10 20 0 11
5 20 10 20 6 0 10 -9 10 -20z m-8015 -49 c3 -5 1 -12 -5 -16 -5 -3 -10 1 -10
9 0 18 6 21 15 7z m7275 -78 c-10 -16 -11 -15 -6 7 3 14 6 34 7 45 1 13 3 11
6 -7 2 -15 -1 -35 -7 -45z m-7350 33 c0 -8 -4 -18 -10 -21 -5 -3 -10 3 -10 14
0 12 5 21 10 21 6 0 10 -6 10 -14z m8107 -28 c-3 -7 -5 -2 -5 12 0 14 2 19 5
13 2 -7 2 -19 0 -25z m-720 -70 c-3 -7 -5 -2 -5 12 0 14 2 19 5 13 2 -7 2 -19
0 -25z m750 -20 c-3 -8 -6 -5 -6 6 -1 11 2 17 5 13 3 -3 4 -12 1 -19z m-720
-105 c-3 -10 -5 -4 -5 12 0 17 2 24 5 18 2 -7 2 -21 0 -30z m-7478 -20 c0 -25
-1 -26 -9 -8 -12 27 -12 35 0 35 6 0 10 -12 9 -27z m8228 -70 c-3 -10 -5 -4
-5 12 0 17 2 24 5 18 2 -7 2 -21 0 -30z m-8260 -105 c-2 -13 -4 -3 -4 22 0 25
2 35 4 23 2 -13 2 -33 0 -45z m8290 -125 c-2 -16 -4 -5 -4 22 0 28 2 40 4 28
2 -13 2 -35 0 -50z m-717 -19 c0 -21 -4 -33 -10 -29 -5 3 -10 22 -10 41 0 21
4 33 10 29 6 -3 10 -22 10 -41z m-7598 -56 c-10 -42 -10 -41 -10 27 0 58 1 65
9 43 7 -18 7 -42 1 -70z m9288 1 c0 -11 -4 -17 -10 -14 -5 3 -10 13 -10 21 0
8 5 14 10 14 6 0 10 -9 10 -21z m-1690 -50 c0 -5 -4 -9 -10 -9 -5 0 -10 7 -10
16 0 8 5 12 10 9 6 -3 10 -10 10 -16z m1670 -29 c0 -5 -4 -10 -10 -10 -5 0
-10 5 -10 10 0 6 5 10 10 10 6 0 10 -4 10 -10z m-1649 -47 c-9 -15 -10 -12
-10 17 0 29 1 32 10 18 7 -12 7 -24 0 -35z m1791 18 c26 -21 147 -62 238 -80
77 -16 119 -27 160 -41 80 -29 108 -38 160 -55 254 -83 618 -323 852 -561 124
-126 288 -324 288 -348 0 -2 20 -35 45 -73 86 -129 196 -372 260 -571 34 -107
61 -332 35 -292 -5 8 -10 27 -10 41 0 15 -7 30 -16 33 -26 10 -86 7 -134 -8
-60 -18 -224 -18 -292 0 -29 7 -74 14 -99 14 -26 0 -60 7 -75 15 -16 8 -47 15
-68 15 -22 0 -62 11 -90 24 -28 13 -67 27 -86 31 -74 15 -275 115 -412 205
-59 38 -117 70 -128 70 -12 0 -19 4 -16 9 5 8 -76 67 -109 80 -5 2 -26 16 -45
30 -42 31 -64 45 -106 66 -17 9 -50 36 -72 60 -23 25 -44 45 -47 45 -12 0
-215 222 -215 236 0 4 -20 30 -44 58 -24 29 -57 74 -72 102 -15 27 -38 66 -51
86 -12 21 -23 41 -23 46 0 4 -5 13 -11 19 -16 16 -49 111 -49 143 -1 14 -7 36
-15 50 -20 36 -21 271 -1 308 8 15 23 45 32 67 10 22 24 44 31 48 7 4 13 14
13 20 0 7 17 29 38 49 20 20 46 45 57 56 26 26 46 27 77 3z m-172 -7 c0 -8 -4
-12 -10 -9 -5 3 -10 10 -10 16 0 5 5 9 10 9 6 0 10 -7 10 -16z m-923 -36 c-3
-7 -5 -2 -5 12 0 14 2 19 5 13 2 -7 2 -19 0 -25z m-8350 -55 c-3 -10 -5 -4 -5
12 0 17 2 24 5 18 2 -7 2 -21 0 -30z m7680 5 c-3 -8 -6 -5 -6 6 -1 11 2 17 5
13 3 -3 4 -12 1 -19z m-7678 -403 c-4 -11 -7 50 -7 135 l1 155 7 -135 c3 -74
3 -144 -1 -155z m7918 229 c-3 -3 -12 -4 -19 -1 -8 3 -5 6 6 6 11 1 17 -2 13
-5z m-7885 -522 c2 -28 0 -52 -4 -52 -5 0 -7 33 -7 73 2 76 6 68 11 -21z
m-936 -73 c-29 -4 -56 -4 -65 1 -11 6 5 9 49 9 l65 -1 -49 -9z m312 4 c-27 -2
-69 -2 -95 0 -27 2 -5 3 47 3 52 0 74 -1 48 -3z m182 -23 c11 -7 6 -10 -20
-10 -26 0 -31 3 -20 10 8 5 17 10 20 10 3 0 12 -5 20 -10z m-663 -6 c-3 -3
-12 -4 -19 -1 -8 3 -5 6 6 6 11 1 17 -2 13 -5z m808 -24 c4 -6 -8 -10 -30 -10
-22 0 -34 4 -30 10 3 6 17 10 30 10 13 0 27 -4 30 -10z m75 -30 c0 -13 -30
-13 -50 0 -11 7 -7 10 18 10 17 0 32 -4 32 -10z m190 -45 c0 -8 -4 -15 -10
-15 -5 0 -7 7 -4 15 4 8 8 15 10 15 2 0 4 -7 4 -15z m-1376 -4 c7 -11 -22 -23
-36 -15 -6 4 -5 10 3 15 18 11 26 11 33 0z m1291 3 c12 -5 14 -9 4 -14 -15
-10 -41 -1 -33 11 6 11 8 11 29 3z m-1355 -33 c0 -10 -30 -24 -37 -17 -3 3 -2
9 2 15 8 13 35 15 35 2z m-100 -55 c0 -3 -4 -8 -10 -11 -5 -3 -10 -1 -10 4 0
6 5 11 10 11 6 0 10 -2 10 -4z m-83 -62 c-3 -3 -12 -4 -19 -1 -8 3 -5 6 6 6
11 1 17 -2 13 -5z m-100 -90 c-16 -14 -31 -24 -33 -21 -7 7 37 47 50 47 6 0
-2 -12 -17 -26z m-135 -146 c-17 -18 -35 -29 -39 -25 -4 5 8 21 27 37 44 38
53 29 12 -12z m-52 -48 c0 -5 -4 -10 -10 -10 -5 0 -10 5 -10 10 0 6 5 10 10
10 6 0 10 -4 10 -10z m-123 -192 c-3 -7 -5 -2 -5 12 0 14 2 19 5 13 2 -7 2
-19 0 -25z m-17 -34 c0 -8 -5 -12 -10 -9 -6 4 -8 11 -5 16 9 14 15 11 15 -7z
m-90 -221 c0 -23 -4 -33 -9 -27 -9 8 -4 64 5 64 2 0 4 -17 4 -37z m-27 -88
c-7 -21 -13 -19 -13 6 0 11 4 18 10 14 5 -3 7 -12 3 -20z m-36 -177 c-3 -7 -5
-2 -5 12 0 14 2 19 5 13 2 -7 2 -19 0 -25z m13723 -33 c0 -8 -4 -15 -10 -15
-5 0 -10 7 -10 15 0 8 5 15 10 15 6 0 10 -7 10 -15z m-13710 -39 c0 -14 -4
-28 -10 -31 -6 -4 -10 7 -10 24 0 17 5 31 10 31 6 0 10 -11 10 -24z m-13 -143
c-3 -10 -5 -4 -5 12 0 17 2 24 5 18 2 -7 2 -21 0 -30z m12 -75 c-1 -7 -5 -24
-9 -38 -7 -22 -8 -21 -9 13 -1 20 4 37 9 37 6 0 10 -6 9 -12z m13711 -93 c0
-25 -4 -45 -9 -45 -5 0 -8 12 -6 28 2 15 4 35 4 45 2 38 11 14 11 -28z
m-11352 -42 c-93 -2 -243 -2 -335 0 -93 1 -17 3 167 3 184 0 260 -2 168 -3z
m1260 0 c-32 -2 -86 -2 -120 0 -35 2 -9 3 57 3 66 0 94 -1 63 -3z m10005 0
c-7 -2 -19 -2 -25 0 -7 3 -2 5 12 5 14 0 19 -2 13 -5z m-12303 -30 c-14 -2
-31 -12 -37 -20 -7 -9 -16 -13 -20 -9 -12 12 28 36 56 35 l26 -2 -25 -4z
m-100 -53 c0 -5 -4 -10 -10 -10 -5 0 -10 5 -10 10 0 6 5 10 10 10 6 0 10 -4
10 -10z m-100 -10 c0 -5 -7 -10 -15 -10 -8 0 -15 5 -15 10 0 6 7 10 15 10 8 0
15 -4 15 -10z m70 -18 c0 -4 -9 -13 -20 -20 -16 -10 -20 -10 -20 2 0 8 6 17
13 19 19 8 27 8 27 -1z m-50 -56 c0 -8 -4 -18 -10 -21 -5 -3 -10 3 -10 14 0
12 5 21 10 21 6 0 10 -6 10 -14z m-1060 -67 c0 -17 -4 -28 -10 -24 -5 3 -10
17 -10 31 0 13 5 24 10 24 6 0 10 -14 10 -31z m1030 2 c0 -11 -4 -23 -10 -26
-6 -4 -10 5 -10 19 0 14 5 26 10 26 6 0 10 -9 10 -19z m-30 -85 c0 -8 -4 -18
-10 -21 -5 -3 -10 3 -10 14 0 12 5 21 10 21 6 0 10 -6 10 -14z m-13 -88 c-3
-7 -5 -2 -5 12 0 14 2 19 5 13 2 -7 2 -19 0 -25z m63 -154 c0 -8 -4 -12 -10
-9 -5 3 -10 10 -10 16 0 5 5 9 10 9 6 0 10 -7 10 -16z m-1100 -18 c0 -3 -4 -8
-10 -11 -5 -3 -10 -1 -10 4 0 6 5 11 10 11 6 0 10 -2 10 -4z m14247 -62 c-3
-3 -12 -4 -19 -1 -8 3 -5 6 6 6 11 1 17 -2 13 -5z m-13153 -35 c-3 -5 -10 -7
-15 -3 -5 3 -7 10 -3 15 3 5 10 7 15 3 5 -3 7 -10 3 -15z m176 -19 c0 -5 -2
-10 -4 -10 -3 0 -8 5 -11 10 -3 6 -1 10 4 10 6 0 11 -4 11 -10z m12890 1 c0
-12 -28 -22 -34 -12 -3 5 -3 11 1 15 9 9 33 7 33 -3z m-14465 -31 c-28 -12
-78 -12 -70 0 3 6 25 10 48 9 33 0 38 -2 22 -9z m90 0 c-3 -5 -21 -10 -38 -9
-27 0 -29 2 -12 9 28 12 57 12 50 0z m10665 0 c36 -4 -2004 -8 -4532 -8 -3007
-1 -4598 1 -4598 8 0 11 9028 12 9130 0z m3562 2 c13 -5 15 -11 8 -22 -7 -10
-10 -11 -10 -2 0 9 -346 12 -1694 12 -1119 0 -1697 3 -1701 10 -7 11 3368 13
3397 2z"/>
</g>
</svg>
